<?xml version="1.0" standalone="no"?>
<svg xmlns:xlink="http://www.w3.org/1999/xlink" id="wave" style="transform:rotate(180deg); transition: 0.3s" viewBox="0 0 1440 100" version="1.1" xmlns="http://www.w3.org/2000/svg"><defs><linearGradient id="sw-gradient-0" x1="0" x2="0" y1="1" y2="0"><stop stop-color="rgba(26, 26, 26, 1)" offset="0%"/><stop stop-color="rgba(26, 26, 26, 1)" offset="100%"/></linearGradient></defs><path style="transform:translate(0, 0px); opacity:1" fill="url(#sw-gradient-0)" d="M0,20L60,23.3C120,27,240,33,360,31.7C480,30,600,20,720,16.7C840,13,960,17,1080,26.7C1200,37,1320,53,1440,65C1560,77,1680,83,1800,81.7C1920,80,2040,70,2160,66.7C2280,63,2400,67,2520,58.3C2640,50,2760,30,2880,28.3C3000,27,3120,43,3240,51.7C3360,60,3480,60,3600,56.7C3720,53,3840,47,3960,48.3C4080,50,4200,60,4320,55C4440,50,4560,30,4680,21.7C4800,13,4920,17,5040,30C5160,43,5280,67,5400,71.7C5520,77,5640,63,5760,63.3C5880,63,6000,77,6120,68.3C6240,60,6360,30,6480,18.3C6600,7,6720,13,6840,18.3C6960,23,7080,27,7200,25C7320,23,7440,17,7560,11.7C7680,7,7800,3,7920,16.7C8040,30,8160,60,8280,60C8400,60,8520,30,8580,15L8640,0L8640,100L8580,100C8520,100,8400,100,8280,100C8160,100,8040,100,7920,100C7800,100,7680,100,7560,100C7440,100,7320,100,7200,100C7080,100,6960,100,6840,100C6720,100,6600,100,6480,100C6360,100,6240,100,6120,100C6000,100,5880,100,5760,100C5640,100,5520,100,5400,100C5280,100,5160,100,5040,100C4920,100,4800,100,4680,100C4560,100,4440,100,4320,100C4200,100,4080,100,3960,100C3840,100,3720,100,3600,100C3480,100,3360,100,3240,100C3120,100,3000,100,2880,100C2760,100,2640,100,2520,100C2400,100,2280,100,2160,100C2040,100,1920,100,1800,100C1680,100,1560,100,1440,100C1320,100,1200,100,1080,100C960,100,840,100,720,100C600,100,480,100,360,100C240,100,120,100,60,100L0,100Z"/></svg>